HIERARCHY
ROOT hip
{
	OFFSET 0.000000 0.000000 0.000000 
	CHANNELS 6 Xposition Yposition Zposition Xrotation Zrotation Yrotation
	JOINT abdomen
	{
		OFFSET 0.000000 3.402643 0.000000 
		CHANNELS 3 Xrotation Zrotation Yrotation
		JOINT chest
		{
			OFFSET 0.000000 8.438565 -0.680529 
			CHANNELS 3 Xrotation Zrotation Yrotation
			JOINT neck
			{
				OFFSET 0.000000 10.207942 -0.272212 
				CHANNELS 3 Xrotation Zrotation Yrotation
				JOINT head
				{
					OFFSET 0.000000 3.130431 0.000000 
					CHANNELS 3 Xrotation Zrotation Yrotation
					End Site
					{
						OFFSET 0.000000 3.130435 0.000000 
					}
				}
			}
			JOINT lCollar
			{
				OFFSET 3.470700 6.669187 -0.816635 
				CHANNELS 3 Yrotation Zrotation Xrotation
				JOINT lShldr
				{
					OFFSET 3.198488 0.000000 0.000000 
					CHANNELS 3 Zrotation Yrotation Xrotation
					JOINT lForeArm
					{
						OFFSET 10.139888 0.000000 0.000000 
						CHANNELS 3 Yrotation Zrotation Xrotation
						JOINT lHand
						{
							OFFSET 8.370511 0.000000 0.000000 
							CHANNELS 3 Zrotation Yrotation Xrotation
							End Site
							{
								OFFSET 4.083176 0.000000 0.000000 
							}
						}
					}
				}
			}
			JOINT rCollar
			{
				OFFSET -3.470700 6.669187 -0.816635 
				CHANNELS 3 Yrotation Zrotation Xrotation
				JOINT rShldr
				{
					OFFSET -3.198488 0.000000 0.000000 
					CHANNELS 3 Zrotation Yrotation Xrotation
					JOINT rForeArm
					{
						OFFSET -10.139888 0.000000 0.000000 
						CHANNELS 3 Yrotation Zrotation Xrotation
						JOINT rHand
						{
							OFFSET -8.370511 0.000000 0.000000 
							CHANNELS 3 Zrotation Yrotation Xrotation
							End Site
							{
								OFFSET -4.083176 0.000000 0.000000 
							}
						}
					}
				}
			}
		}
	}
	JOINT lThigh
	{
		OFFSET 5.308129 -1.633274 1.361059 
		CHANNELS 3 Xrotation Zrotation Yrotation
		JOINT lShin
		{
			OFFSET -2.041588 -20.007561 0.000000 
			CHANNELS 3 Xrotation Zrotation Yrotation
			JOINT lFoot
			{
				OFFSET 0.000000 -19.190928 -1.224953 
				CHANNELS 3 Xrotation Yrotation Zrotation
				End Site
				{
					OFFSET 0.000000 -2.449906 4.627600 
				}
			}
		}
	}
	JOINT rThigh
	{
		OFFSET -5.308129 -1.633274 1.361059 
		CHANNELS 3 Xrotation Zrotation Yrotation
		JOINT rShin
		{
			OFFSET 2.041588 -20.007561 0.000000 
			CHANNELS 3 Xrotation Zrotation Yrotation
			JOINT rFoot
			{
				OFFSET 0.000000 -19.190928 -1.224953 
				CHANNELS 3 Xrotation Yrotation Zrotation
				End Site
				{
					OFFSET 0.000000 -2.449906 4.627600 
				}
			}
		}
	}
}
MOTION
Frames: 18
Frame Time: 0.016667
16.195915 42.858551 -10.262492 -2.216990 0.761149 -70.488403 -17.777399 -0.810094 3.814360 19.775299 0.654236 1.612170 7.910540 13.901400 -28.035299 11.103400 8.068710 -13.647800 2.000000 -2.000000 0.000000 -31.823299 -10.293700 127.709000 78.633301 -0.241795 0.134083 0.044920 -0.009594 -140.350006 -2.000000 2.000000 0.000000 -172.332001 73.209000 -22.872400 -66.533699 0.269291 0.125416 -0.054741 -0.000728 -133.171997 -6.745207 -4.632131 -5.889069 22.925682 3.391056 1.604729 -11.172091 13.584176 4.145253 -13.269844 -5.355307 20.187216 28.842817 -3.225810 -2.027388 -16.736940 -18.658955 -4.341521 
16.276571 42.847351 -10.302404 -2.334270 0.897692 -71.022903 -17.644400 -0.759068 4.478900 20.009701 0.556615 1.928280 7.824410 14.579300 -28.434500 11.255400 8.269270 -13.815100 2.000000 -2.000000 0.000000 -32.635101 -11.279300 128.227997 78.975098 -0.240995 0.134241 0.044901 -0.009266 -140.231995 -2.000000 2.000000 0.000000 -12.380600 110.051003 138.630997 -64.541496 0.273618 0.123447 -0.056062 -0.013290 -128.660004 -6.819103 -4.780071 -5.636421 22.804607 3.342080 1.606790 -11.063810 14.002958 4.272718 -13.588749 -5.502189 19.765562 29.071583 -3.205310 -2.039198 -16.304821 -19.020466 -4.320241 
16.319822 42.839375 -10.341768 -2.275740 1.005070 -71.094597 -17.453100 -0.644339 5.007600 20.283199 0.537103 2.194700 7.582500 15.525000 -28.916401 11.460000 8.604170 -13.995800 2.000000 -2.000000 0.000000 -33.535099 -12.225500 128.923004 79.277901 -0.240285 0.134378 0.044915 -0.009512 -140.320007 -2.000000 2.000000 0.000000 -26.766800 113.783997 124.849998 -61.826698 0.279399 0.120525 -0.057358 -0.020919 -125.896004 -7.055110 -4.767486 -5.667662 22.858656 3.310683 1.609911 -10.867856 14.283717 4.309042 -13.692028 -5.458347 19.484585 29.034143 -3.194752 -2.057066 -16.111094 -19.489616 -4.381005 
16.362961 42.831398 -10.381122 -2.217210 1.112450 -71.166100 -17.259701 -0.517152 5.541980 20.546900 0.517578 2.460930 7.329620 16.472500 -29.400600 11.665200 8.938650 -14.174200 2.000000 -2.000000 0.000000 -34.454800 -13.152200 129.639008 79.580597 -0.239575 0.134510 0.044932 -0.009785 -140.417999 -2.000000 2.000000 0.000000 143.031998 61.477901 -64.761200 -59.111801 0.285035 0.117332 -0.059027 -0.028503 -123.123001 -7.275869 -4.753939 -5.690556 22.969742 3.300467 1.636571 -10.756064 14.538321 4.334008 -13.839081 -5.407291 19.211468 28.967224 -3.176491 -2.053306 -15.893961 -19.959288 -4.459073 
16.386665 42.834991 -10.421956 -2.139210 1.288160 -70.741501 -17.179001 -0.513056 5.914950 20.595699 0.449219 2.637100 6.968020 16.769400 -29.872601 11.597400 8.998290 -14.372500 2.000000 -2.000000 0.000000 -35.209400 -13.511400 130.977005 80.147003 -0.238245 0.134748 0.044909 -0.009402 -140.281006 -2.000000 2.000000 0.000000 135.078003 57.770199 -72.214600 -56.660702 0.289988 0.114223 -0.057528 -0.021778 -125.584000 -7.606811 -4.694259 -5.906672 23.004057 3.268325 1.639747 -10.740958 14.212415 4.287510 -13.898302 -5.329474 19.311481 28.821318 -3.162396 -2.051602 -15.811663 -20.625860 -4.642293 
16.410255 42.838734 -10.462790 -2.061220 1.463900 -70.326103 -17.087400 -0.496529 6.293360 20.634800 0.390625 2.822860 6.614150 17.046700 -30.336901 11.519900 9.067850 -14.561400 2.000000 -2.000000 0.000000 -35.973701 -13.841300 132.326004 80.723198 -0.236889 0.134976 0.044888 -0.009048 -140.154007 -2.000000 2.000000 0.000000 128.740997 53.625999 -78.019798 -54.199699 0.294823 0.110891 -0.056319 -0.014994 -128.044998 -7.862140 -4.613419 -6.111113 22.990582 3.224423 1.641672 -10.728686 13.855805 4.238961 -14.040724 -5.215555 19.405651 28.761755 -3.160909 -2.032457 -15.740086 -21.297396 -4.826008 
16.411604 42.846710 -10.522059 -1.846480 1.659290 -69.613998 -17.080999 -0.273976 6.388040 20.546900 0.703125 2.890510 6.160180 17.685699 -30.144600 11.489200 9.446360 -14.419600 2.000000 -2.000000 0.000000 -37.295101 -13.232800 134.182007 81.787598 -0.234379 0.135362 0.044807 -0.007464 -139.587997 -2.000000 2.000000 0.000000 122.717003 50.499199 -82.641998 -52.373501 0.298316 0.108286 -0.055558 -0.009495 -130.026993 -8.405210 -4.463176 -6.431281 23.269535 3.210773 1.665115 -10.577654 13.694993 4.182299 -14.081151 -5.073718 19.226879 28.654552 -3.148719 -2.021085 -15.675388 -21.889723 -4.993248 
16.412951 42.854687 -10.581341 -1.621940 1.854730 -68.909897 -17.065300 -0.054950 6.473170 20.459000 1.015620 2.967020 5.712800 18.314699 -29.949200 11.458500 9.815250 -14.269700 2.000000 -2.000000 0.000000 -38.596901 -12.585200 136.016998 82.842300 -0.231884 0.135698 0.044741 -0.005879 -139.020996 -2.000000 2.000000 0.000000 117.458000 47.119400 -86.462196 -50.537601 0.301742 0.105556 -0.054987 -0.003973 -132.009995 -8.837612 -4.279144 -6.775339 23.414490 3.165459 1.684310 -10.391609 13.512942 4.109941 -14.169568 -4.907042 19.054174 28.568844 -3.129870 -2.036953 -15.588047 -22.448147 -5.155453 
16.399021 42.865753 -10.633353 -1.387480 1.903740 -68.259003 -17.020300 0.041126 6.339840 20.380800 1.181640 2.916300 5.641140 18.468000 -29.796801 11.481000 9.921280 -14.184200 2.000000 -2.000000 0.000000 -39.732101 -11.087900 137.802002 83.789597 -0.229640 0.135961 0.044745 -0.005988 -139.059998 -2.000000 2.000000 0.000000 112.468002 44.570301 -89.101601 -49.893002 0.302924 0.104572 -0.055384 -0.008001 -130.563995 -9.205336 -4.024904 -6.934274 23.704779 3.147383 1.736247 -10.264170 13.232490 4.030285 -14.026687 -4.729743 18.909527 28.414133 -3.105691 -2.033020 -15.774498 -22.697235 -5.350136 
16.384979 42.876827 -10.685377 -1.143240 1.942970 -67.607101 -16.975401 0.146599 6.203850 20.312401 1.347640 2.865350 5.560030 18.621401 -29.658501 11.503200 10.017600 -14.090300 2.000000 -2.000000 0.000000 -40.808601 -9.551620 139.537994 84.746597 -0.227367 0.136189 0.044749 -0.006097 -139.100006 -2.000000 2.000000 0.000000 107.856003 41.865299 -91.311798 -49.248501 0.304095 0.103574 -0.055887 -0.012044 -129.108994 -9.555258 -3.772767 -7.086993 23.982519 3.134006 1.740006 -10.138971 12.961754 3.955976 -13.995858 -4.511145 18.767723 28.383446 -3.114020 -2.025685 -16.000118 -22.943604 -5.553649 
16.366781 42.892262 -10.733795 -0.674264 2.060400 -67.074997 -17.019300 0.242754 6.043450 20.273399 1.347640 2.805840 5.400400 18.740499 -29.496700 11.466300 10.125100 -13.993800 2.000000 -2.000000 0.000000 -41.963600 -7.760660 141.626007 85.615799 -0.225301 0.136363 0.044864 -0.008611 -139.998001 -2.000000 2.000000 0.000000 103.447998 39.638901 -93.259003 -48.926201 0.304676 0.103071 -0.056118 -0.013669 -128.522995 -10.123110 -3.334640 -7.204649 24.299774 3.125165 1.764160 -10.026821 12.734999 3.883325 -14.057240 -4.116242 18.598579 28.139820 -3.091302 -2.013512 -15.962907 -23.231527 -5.663555 
16.348581 42.907711 -10.782224 -0.205225 2.167950 -66.541000 -17.053801 0.335336 5.873370 20.224501 1.347630 2.736330 5.240900 18.869200 -29.337799 11.429300 10.232600 -13.899100 2.000000 -2.000000 0.000000 -43.059898 -5.920840 143.673004 86.484901 -0.223232 0.136505 0.045017 -0.011095 -140.886993 -2.000000 2.000000 0.000000 99.272598 37.305199 -94.919800 -48.604000 0.305254 0.102564 -0.056366 -0.015291 -127.936996 -10.607388 -2.876334 -7.315876 24.549301 3.105764 1.786314 -9.941450 12.489336 3.840480 -14.050358 -3.782328 18.407442 27.780190 -3.054190 -2.009261 -15.892639 -23.475018 -5.763862 
16.308813 42.917236 -10.813567 0.205246 2.314440 -66.241302 -17.219101 0.387954 5.596780 20.048700 1.337840 2.624860 5.226060 18.750000 -29.117701 11.369500 10.224400 -13.793600 2.000000 -2.000000 0.000000 -44.868900 -3.202160 145.641006 86.816902 -0.222441 0.136551 0.045066 -0.011776 -141.130997 -2.000000 2.000000 0.000000 95.264603 34.747101 -97.063400 -48.701599 0.305079 0.102718 -0.055554 -0.009468 -130.037003 -11.021175 -2.504324 -7.376473 24.659630 3.094639 1.802666 -9.829560 12.462561 3.822893 -14.189710 -3.471159 18.319374 27.557354 -3.024113 -2.005051 -16.038054 -23.525801 -5.905712 
16.269159 42.926762 -10.844931 0.625577 2.460790 -65.949303 -17.384100 0.440299 5.319380 19.863100 1.318260 2.503580 5.211300 18.630899 -28.900700 11.299600 10.206700 -13.700700 2.000000 -2.000000 0.000000 -46.580200 -0.434762 147.511002 87.149002 -0.221650 0.136593 0.045118 -0.012458 -141.375000 -2.000000 2.000000 0.000000 91.499702 32.071999 -98.939499 -48.799301 0.304904 0.102871 -0.054957 -0.003619 -132.136993 -11.451552 -2.144852 -7.437467 24.739492 3.088119 1.810061 -9.651379 12.409958 3.796977 -14.300157 -3.171123 18.241865 27.275434 -2.995721 -2.002675 -16.182472 -23.573269 -6.057364 
16.203104 42.928303 -10.858524 0.410610 2.695240 -66.064201 -17.380100 0.300787 5.168740 19.872900 1.249910 2.416730 5.051000 18.523899 -28.826401 11.239600 10.188800 -13.646900 2.000000 -2.000000 0.000000 -48.340199 2.156570 149.205002 86.768097 -0.222557 0.136545 0.045109 -0.012349 -141.335999 -2.000000 2.000000 0.000000 88.118401 29.573299 -101.914001 -48.848099 0.304816 0.102948 -0.054587 0.001975 -134.139008 -11.232012 -2.386194 -7.467610 24.208447 3.072574 1.773978 -9.494766 12.633160 3.820354 -14.522263 -3.397243 18.198832 27.510790 -3.006756 -2.021574 -16.284245 -23.508038 -6.043030 
16.137274 42.929714 -10.872106 0.205347 2.929670 -66.190201 -17.366301 0.151851 5.020680 19.882700 1.181560 2.320090 4.881840 18.426399 -28.767401 11.179600 10.170800 -13.601000 2.000000 -2.000000 0.000000 -50.022202 4.806400 150.820007 86.377502 -0.223488 0.136489 0.045103 -0.012267 -141.307007 -2.000000 2.000000 0.000000 84.970497 26.938000 -104.660004 -48.887199 0.304746 0.103009 -0.054413 0.007605 -136.149994 -11.156805 -2.662086 -7.483553 23.843040 3.073368 1.749503 -9.361845 12.839793 3.858868 -14.670729 -3.670176 18.144293 27.552919 -2.982066 -2.025020 -16.273598 -23.409565 -6.028612 
16.038641 42.925472 -10.911120 -0.391221 3.163990 -66.828201 -17.402901 -0.082411 4.839590 19.765400 1.259650 2.189640 4.801840 18.209101 -28.678900 11.109000 10.124000 -13.550700 2.000000 -2.000000 0.000000 -52.182201 7.591750 151.839996 85.254402 -0.226160 0.136294 0.044982 -0.010576 -140.701004 -2.000000 2.000000 0.000000 82.565201 24.547501 -107.654999 -48.604000 0.305254 0.102564 -0.054416 0.007359 -136.061996 -10.610468 -3.220463 -7.264746 23.177673 3.097281 1.693776 -9.252332 13.337784 3.911988 -14.957233 -4.115528 18.323269 27.983055 -3.008876 -2.045105 -16.170931 -23.105778 -5.817133 
15.940232 42.921227 -10.950147 -0.988055 3.388170 -67.470398 -17.430000 -0.310840 4.646280 19.658001 1.327960 2.059250 4.722120 17.991699 -28.589800 11.048300 10.077000 -13.508300 2.000000 -2.000000 0.000000 -54.303299 10.425700 152.751999 84.131401 -0.228828 0.136047 0.044881 -0.008911 -140.104996 -2.000000 2.000000 0.000000 80.334900 22.039900 -110.486000 -48.320801 0.305760 0.102116 -0.054421 0.007085 -135.964996 -10.110177 -3.781306 -7.055775 22.514387 3.104059 1.644283 -9.088101 13.856370 4.008700 -15.115248 -4.623138 18.495356 28.256594 -3.022647 -2.044808 -16.070736 -22.803877 -5.633253 
